Coordinates
version=1
nRows=6
nColumns=107
inDegrees=yes

Units are S.I. units (second, meters, Newtons, ...)
If the header above contains a line with 'inDegrees', this indicates whether rotational values are in degrees (yes) or radians (no).

endheader
time	sternoclavicular_r2	sternoclavicular_r3	unrotscap_r3	unrotscap_r2	acromioclavicular_r2	acromioclavicular_r3	acromioclavicular_r1	unrothum_r1	unrothum_r3	unrothum_r2	elv_angle	shoulder_elv	shoulder1_r2	shoulder_rot	elbow_flexion	pro_sup	deviation	flexion	proximal_distal_r1	proximal_distal_r3	cmc_flexion	cmc_abduction	mp_flexion	ip_flexion	mcp2_flexion	mcp2_abduction	pm2_flexion	md2_flexion	mcp3_flexion	mcp3_abduction	pm3_flexion	md3_flexion	mcp4_flexion	mcp4_abduction	pm4_flexion	md4_flexion	mcp5_flexion	mcp5_abduction	pm5_flexion	md5_flexion	bicpt_tx	bicpt_ty	bicpt_tz	bicpt2_tx	bicpt2_ty	bicpt2_tz	ptpt_tx	ptpt_ty	ptpt_tz	FCUpt_tx	FCUpt_ty	FCUpt_tz	EDCpt_tx	EDCpt_ty	EDCpt_tz	APLpt_tx	APLpt_ty	APLpt_tz	FPLpt_tx	FPLpt_ty	FPLpt_tz	FPLpt2_tx	FPLpt2_ty	FPLpt2_tz	PEC1pt2_tx	PEC1pt2_ty	PEC1pt2_tz	PEC1pt3_tx	PEC1pt3_ty	PEC1pt3_tz	PEC2pt2_tx	PEC2pt2_ty	PEC2pt2_tz	PEC2pt3_tx	PEC2pt3_ty	PEC2pt3_tz	PEC3pt2_tx	PEC3pt2_ty	PEC3pt2_tz	PEC3pt3_tx	PEC3pt3_ty	PEC3pt3_tz	DELT2pt2a_tx	DELT2pt2a_ty	DELT2pt2a_tz	DELT2pt2_tx	DELT2pt2_ty	DELT2pt2_tz	LAT1pt2_tx	LAT1pt2_ty	LAT1pt2_tz	LAT1pt3_tx	LAT1pt3_ty	LAT1pt3_tz	LAT2pt2_tx	LAT2pt2_ty	LAT2pt2_tz	LAT2pt3_tx	LAT2pt3_ty	LAT2pt3_tz	LAT3pt2_tx	LAT3pt2_ty	LAT3pt2_tz	LAT3pt3_tx	LAT3pt3_ty	LAT3pt3_tz
      0.00000000	     -0.31314661	      0.13263412	     -0.13263412	      0.31314661	     -0.06340582	      0.51242352	      0.23033085	     -0.23033085	     -0.51242352	      0.06340582	    101.54815378	     74.14024364	     -1.77234963	    -37.78653817	     30.98556232	     79.04454216	      0.33248952	     -0.56251649	      0.36075028	     -0.28125824	     40.73094625	    -11.16028138	     -3.19625389	      8.76041447	     99.81099619	     12.71377912	     82.83334888	     61.83532666	     94.47627584	      0.92448017	     84.80551905	     51.67797932	     87.02611203	    -13.37482988	     93.85681971	     85.19587023	    100.24995982	    -14.12186959	     88.53257638	      5.33323370	      0.00092491	     -0.03115142	     -0.00487204	      0.01490358	     -0.01861738	     -0.00223325	      0.00170950	     -0.06867656	     -0.00641746	      0.01194645	     -0.18246641	     -0.00008957	     -0.00948532	      0.00320378	     -0.00054698	      0.00031054	      0.00012422	      0.00062109	      0.00039750	      0.00119249	      0.00067077	     -0.00000950	     -0.00009660	     -0.00011592	      0.00243015	      0.00852614	      0.00593122	     -0.00794949	      0.01919410	     -0.01820556	      0.00243015	      0.00852614	      0.00593122	      0.00053546	      0.01779367	     -0.00934992	      0.00387046	      0.00474128	      0.01577514	      0.00000000	      0.00734853	      0.00000000	     -0.00696095	     -0.03216866	     -0.00605667	      0.02192448	     -0.00103066	     -0.01163008	     -0.00086497	      0.01449855	     -0.00593122	      0.00238897	      0.02092404	     -0.01729940	     -0.00580766	      0.01256266	     -0.00531339	     -0.01210958	      0.02652575	     -0.02969731	     -0.02273636	      0.01404547	     -0.00712571	     -0.01507520	      0.03064466	     -0.03711134
      0.03333333	     -0.31313740	      0.13263022	     -0.13263022	      0.31313740	     -0.06340395	      0.51240845	      0.23032407	     -0.23032407	     -0.51240845	      0.06340395	    101.57029406	     74.13806271	     -1.77273605	    -37.77783261	     30.99599787	     79.04452885	      0.33248170	     -0.56252595	      0.36074337	     -0.28126297	     40.73107607	    -11.16075649	     -3.19582586	      8.76042745	     99.80956895	     12.71449557	     82.83337581	     61.83609217	     94.47800106	      0.92492980	     84.80496938	     51.67773963	     87.02766458	    -13.37470571	     93.85665272	     85.19575691	    100.25064022	    -14.12260686	     88.53452244	      5.33355335	      0.00092525	     -0.03115262	     -0.00487223	      0.01490354	     -0.01862021	     -0.00223323	      0.00170950	     -0.06867656	     -0.00641746	      0.01194645	     -0.18246641	     -0.00008956	     -0.00948532	      0.00320379	     -0.00054699	      0.00031054	      0.00012422	      0.00062109	      0.00039750	      0.00119249	      0.00067077	     -0.00000950	     -0.00009660	     -0.00011592	      0.00243008	      0.00852588	      0.00593105	     -0.00794925	      0.01919354	     -0.01820503	      0.00243008	      0.00852588	      0.00593105	      0.00053544	      0.01779315	     -0.00934964	      0.00387038	      0.00474114	      0.01577493	      0.00000000	      0.00734810	      0.00000000	     -0.00696075	     -0.03216771	     -0.00605631	      0.02192134	     -0.00103034	     -0.01162524	     -0.00086494	      0.01449812	     -0.00593105	      0.00238890	      0.02092343	     -0.01729890	     -0.00580749	      0.01256229	     -0.00531323	     -0.01210923	      0.02652497	     -0.02969644	     -0.02273569	      0.01404506	     -0.00712550	     -0.01507475	      0.03064376	     -0.03711025
      0.06666667	     -0.31300209	      0.13257291	     -0.13257291	      0.31300209	     -0.06337656	      0.51218704	      0.23022455	     -0.23022455	     -0.51218704	      0.06337656	    101.67291330	     74.10602796	     -1.77452710	    -38.05461647	     30.85592156	     79.05816927	      0.32439571	     -0.59066567	      0.35411728	     -0.29533284	     40.50522999	    -11.65689977	     -2.15011608	      7.86732385	     99.37454484	     12.94973623	     82.46965950	     66.55657991	     95.16492149	      1.40586811	     84.18896295	     50.67518829	     87.79209977	    -13.31570820	     94.16076548	     85.10922698	     99.80595569	    -14.17769762	     91.83181773	      5.40945931	      0.00092062	     -0.03113656	     -0.00486965	      0.01490235	     -0.01858216	     -0.00223103	      0.00170849	     -0.06867721	     -0.00641856	      0.01194799	     -0.18246597	     -0.00008926	     -0.00948696	      0.00320451	     -0.00054738	      0.00031216	      0.00012486	      0.00062432	      0.00039956	      0.00119869	      0.00067426	     -0.00000982	     -0.00010115	     -0.00012137	      0.00242903	      0.00852220	      0.00592849	     -0.00794582	      0.01918524	     -0.01819716	      0.00242903	      0.00852220	      0.00592849	      0.00053521	      0.01778546	     -0.00934560	      0.00386914	      0.00473909	      0.01577181	      0.00000000	      0.00734171	      0.00000000	     -0.00695774	     -0.03215381	     -0.00605100	      0.02201478	     -0.00104032	     -0.01178346	     -0.00086457	      0.01449186	     -0.00592849	      0.00238786	      0.02091439	     -0.01729142	     -0.00580498	      0.01255687	     -0.00531094	     -0.01210399	      0.02651351	     -0.02968361	     -0.02272587	      0.01403899	     -0.00712242	     -0.01506824	      0.03063052	     -0.03709422
      0.10000000	     -0.31330113	      0.13269957	     -0.13269957	      0.31330113	     -0.06343711	      0.51267638	      0.23044451	     -0.23044451	     -0.51267638	      0.06343711	    101.61075269	     74.17682844	     -1.77344219	    -37.66590210	     30.74953394	     78.63433342	      0.32358546	     -0.60243016	      0.35344717	     -0.30121508	     40.42066160	    -11.86666632	     -2.10246491	      7.75002932	     99.20109875	     12.97660180	     82.44455716	     67.67378999	     95.42632273	      1.45583168	     83.99919309	     50.21429580	     88.77445963	    -13.24202119	     95.83688078	     84.65632880	     99.71386070	    -14.19615392	     92.66388329	      5.42060624	      0.00091710	     -0.03112437	     -0.00486768	      0.01493923	     -0.01855326	     -0.00229936	      0.00173981	     -0.06865696	     -0.00638442	      0.01190023	     -0.18247946	     -0.00009865	     -0.00943610	      0.00318218	     -0.00053541	      0.00031244	      0.00012498	      0.00062488	      0.00039992	      0.00119977	      0.00067487	     -0.00000994	     -0.00010283	     -0.00012340	      0.00243135	      0.00853034	      0.00593415	     -0.00795341	      0.01920357	     -0.01821455	      0.00243135	      0.00853034	      0.00593415	      0.00053572	      0.01780245	     -0.00935453	      0.00387188	      0.00474362	      0.01577870	      0.00000000	      0.00735583	      0.00000000	     -0.00696439	     -0.03218453	     -0.00606274	      0.02188334	     -0.00102631	     -0.01156140	     -0.00086540	      0.01450570	     -0.00593415	      0.00239014	      0.02093437	     -0.01730794	     -0.00581052	      0.01256886	     -0.00531601	     -0.01211556	      0.02653884	     -0.02971197	     -0.02274758	      0.01405240	     -0.00712922	     -0.01508263	      0.03065978	     -0.03712965
      0.13333333	     -0.31424088	      0.13309760	     -0.13309760	      0.31424088	     -0.06362739	      0.51421415	      0.23113572	     -0.23113572	     -0.51421415	      0.06362739	    101.07646135	     74.39932060	     -1.76411705	    -36.22688010	     30.98154268	     79.21637260	      0.32345079	     -0.62585025	      0.35333572	     -0.31292513	     40.32201426	    -13.66410957	     -1.80383505	      7.43324730	     98.93005438	     13.23043010	     82.16314390	     71.02125493	     95.67882555	      2.53487403	     83.37122158	     50.29255358	     97.14994964	    -13.91798134	     82.74329682	     22.66996043	    100.12940181	    -14.16697503	     90.01181938	      5.51712484	      0.00092477	     -0.03115096	     -0.00487197	      0.01488848	     -0.01861629	     -0.00220546	      0.00169680	     -0.06868477	     -0.00643130	      0.01196583	     -0.18246092	     -0.00008572	     -0.00950594	      0.00321285	     -0.00055187	      0.00031231	      0.00012493	      0.00062463	      0.00039976	      0.00119928	      0.00067460	     -0.00001007	     -0.00010479	     -0.00012575	      0.00243865	      0.00855593	      0.00595195	     -0.00797727	      0.01926117	     -0.01826918	      0.00243865	      0.00855593	      0.00595195	      0.00053733	      0.01785585	     -0.00938259	      0.00388045	      0.00475784	      0.01580030	      0.00000000	      0.00740031	      0.00000000	     -0.00698528	     -0.03228107	     -0.00609968	      0.02137907	     -0.00097473	     -0.01075189	     -0.00086799	      0.01454921	     -0.00595195	      0.00239731	      0.02099716	     -0.01735986	     -0.00582795	      0.01260656	     -0.00533196	     -0.01215190	      0.02661845	     -0.02980109	     -0.02281581	      0.01409455	     -0.00715061	     -0.01512787	      0.03075175	     -0.03724102
      0.16666667	     -0.31430361	      0.13312417	     -0.13312417	      0.31430361	     -0.06364009	      0.51431680	      0.23118186	     -0.23118186	     -0.51431680	      0.06364009	    101.03885429	     74.41417281	     -1.76346068	    -36.13179387	     31.03102480	     79.50503643	      0.32726423	     -0.61677546	      0.35648079	     -0.30838773	     40.33107269	    -13.95559618	     -1.70456357	      7.35595238	     98.84648697	     13.26621974	     82.27106978	     71.63775747	     95.75980487	      2.73335556	     83.28153235	     50.18917815	     97.12193040	    -13.98057074	     80.88407800	     20.63266063	    100.05337904	    -14.16716281	     89.94183541	      5.53240237	      0.00092641	     -0.03115663	     -0.00487288	      0.01486307	     -0.01862973	     -0.00215874	      0.00167547	     -0.06869857	     -0.00645456	      0.01199839	     -0.18245170	     -0.00007922	     -0.00954058	      0.00322810	     -0.00056009	      0.00031247	      0.00012499	      0.00062494	      0.00039996	      0.00119989	      0.00067494	     -0.00001006	     -0.00010461	     -0.00012554	      0.00243913	      0.00855764	      0.00595314	     -0.00797886	      0.01926502	     -0.01827283	      0.00243913	      0.00855764	      0.00595314	      0.00053744	      0.01785942	     -0.00938446	      0.00388102	      0.00475879	      0.01580174	      0.00000000	      0.00740328	      0.00000000	     -0.00698667	     -0.03228751	     -0.00610215	      0.02134505	     -0.00097133	     -0.01069890	     -0.00086817	      0.01455212	     -0.00595314	      0.00239779	      0.02100135	     -0.01736332	     -0.00582912	      0.01260908	     -0.00533302	     -0.01215433	      0.02662376	     -0.02980704	     -0.02282037	      0.01409736	     -0.00715203	     -0.01513089	      0.03075788	     -0.03724846
